<mxfile host="app.diagrams.net" modified="2023-11-01T09:08:46.044Z" agent="Mozilla/5.0 (X11; Linux x86_64) AppleWebKit/537.36 (KHTML, like Gecko) Chrome/112.0.0.0 Safari/537.36" etag="EMrflE4fUCyio13lbAxe" version="22.0.8" type="github">
  <diagram name="Page-1" id="S5-0JtYaMWdxEyBJnW1v">
    <mxGraphModel dx="855" dy="793" grid="1" gridSize="10" guides="1" tooltips="1" connect="1" arrows="1" fold="1" page="1" pageScale="1" pageWidth="850" pageHeight="1100" math="0" shadow="0">
      <root>
        <mxCell id="0" />
        <mxCell id="1" parent="0" />
        <mxCell id="DZKNoQdhy6jW-IzfUURD-4" style="edgeStyle=orthogonalEdgeStyle;rounded=0;orthogonalLoop=1;jettySize=auto;html=1;" edge="1" parent="1" source="DZKNoQdhy6jW-IzfUURD-2" target="DZKNoQdhy6jW-IzfUURD-3">
          <mxGeometry relative="1" as="geometry" />
        </mxCell>
        <mxCell id="DZKNoQdhy6jW-IzfUURD-2" value="&lt;font style=&quot;font-size: 30px;&quot;&gt;main&lt;/font&gt;" style="rounded=0;whiteSpace=wrap;html=1;" vertex="1" parent="1">
          <mxGeometry x="40" y="30" width="120" height="60" as="geometry" />
        </mxCell>
        <mxCell id="DZKNoQdhy6jW-IzfUURD-3" value="&lt;font style=&quot;font-size: 20px;&quot;&gt;Err == -1&lt;br&gt;Exit Failure&lt;/font&gt;" style="rounded=0;whiteSpace=wrap;html=1;" vertex="1" parent="1">
          <mxGeometry x="40" y="130" width="120" height="60" as="geometry" />
        </mxCell>
        <mxCell id="DZKNoQdhy6jW-IzfUURD-5" value="init proc" style="rounded=0;whiteSpace=wrap;html=1;" vertex="1" parent="1">
          <mxGeometry x="230" y="30" width="120" height="60" as="geometry" />
        </mxCell>
        <mxCell id="DZKNoQdhy6jW-IzfUURD-6" value="" style="rounded=0;whiteSpace=wrap;html=1;" vertex="1" parent="1">
          <mxGeometry x="220" y="120" width="120" height="60" as="geometry" />
        </mxCell>
      </root>
    </mxGraphModel>
  </diagram>
</mxfile>
